<svg width="24" height="24" viewBox="0 0 24 24" fill="none" xmlns="http://www.w3.org/2000/svg">
<path d="M11.0002 1.98779C6.03023 1.98779 1.99023 6.02779 1.99023 10.9978C1.99023 15.9678 6.03023 20.0078 11.0002 20.0078C15.9702 20.0078 20.0102 15.9678 20.0102 10.9978C20.0102 6.02779 15.9702 1.98779 11.0002 1.98779ZM14.1802 11.5578C13.6202 13.3378 11.6702 14.3078 11.0002 14.3078C10.3102 14.3078 8.40023 13.3778 7.82023 11.5578C7.44023 10.3678 7.87023 8.81779 9.23023 8.38779C9.85023 8.18779 10.5102 8.30779 11.0002 8.67779C11.4802 8.30779 12.1502 8.18779 12.7802 8.38779C14.1302 8.82779 14.5602 10.3778 14.1802 11.5578ZM21.9902 18.9498C21.6602 18.3398 20.9602 17.9998 20.0202 17.9998C19.3102 17.9998 18.7002 18.2898 18.3402 18.7898C17.9802 19.2898 17.9002 19.9598 18.1202 20.6298C18.5502 21.9298 19.3002 22.2198 19.7102 22.2698C19.7702 22.2798 19.8302 22.2798 19.9002 22.2798C20.3402 22.2798 21.0202 22.0898 21.6802 21.0998C22.2102 20.3298 22.3102 19.5598 21.9902 18.9498Z" fill="#200643"/>
</svg>
