<svg width="124" height="124" viewBox="0 0 124 124" fill="none" xmlns="http://www.w3.org/2000/svg">
<g opacity="0.5">
<path fill-rule="evenodd" clip-rule="evenodd" d="M39.6083 113.666H84.3859C101.902 113.666 113.666 101.379 113.666 83.0966V40.9027C113.666 22.6199 101.902 10.333 84.3911 10.333H39.6083C22.097 10.333 10.333 22.6199 10.333 40.9027V83.0966C10.333 101.379 22.097 113.666 39.6083 113.666ZM43.9104 56.833C36.7874 56.833 30.9997 51.0374 30.9997 43.9163C30.9997 36.7953 36.7874 30.9997 43.9104 30.9997C51.0283 30.9997 56.8212 36.7953 56.8212 43.9163C56.8212 51.0374 51.0283 56.833 43.9104 56.833ZM102.407 77.1584C104.137 81.5946 103.238 86.9266 101.389 91.3201C99.1964 96.5454 94.9985 100.502 89.7095 102.229C87.3611 102.997 84.8984 103.333 82.441 103.333H38.8977C34.5646 103.333 30.7304 102.293 27.5871 100.358C25.618 99.1421 25.2699 96.3375 26.7299 94.5193C29.1717 91.4801 31.5824 88.4302 34.0139 85.3536C38.6483 79.4672 41.7708 77.7609 45.2413 79.2592C46.6493 79.8777 48.0625 80.8055 49.5172 81.7866C53.3931 84.4206 58.7808 88.041 65.8778 84.1113C70.7344 81.3912 73.5513 76.7253 76.0043 72.6622L76.0453 72.5943C76.2192 72.3092 76.3914 72.0242 76.5632 71.7399C77.3876 70.3759 78.201 69.0301 79.1211 67.7902C80.2745 66.2386 84.5504 61.3865 90.0887 64.8416C93.6165 67.017 96.5831 69.9603 99.7575 73.1115C100.968 74.3165 101.831 75.6868 102.407 77.1584Z" fill="#200643"/>
</g>
</svg>
