<svg width="24" height="24" viewBox="0 0 24 24" fill="none" xmlns="http://www.w3.org/2000/svg">
<path d="M12.5 18.5C14.2239 18.5 15.8772 17.8152 17.0962 16.5962C18.3152 15.3772 19 13.7239 19 12C19 10.2761 18.3152 8.62279 17.0962 7.40381C15.8772 6.18482 14.2239 5.5 12.5 5.5C10.7761 5.5 9.12279 6.18482 7.90381 7.40381C6.68482 8.62279 6 10.2761 6 12C6 13.7239 6.68482 15.3772 7.90381 16.5962C9.12279 17.8152 10.7761 18.5 12.5 18.5V18.5Z" stroke="#200643" stroke-width="1.5" stroke-linecap="round" stroke-linejoin="round"/>
<path d="M19.14 19.14L19.01 19.01M19.01 4.99L19.14 4.86L19.01 4.99ZM4.86 19.14L4.99 19.01L4.86 19.14ZM12 2.08V2V2.08ZM12 22V21.92V22ZM2.08 12H2H2.08ZM22 12H21.92H22ZM4.99 4.99L4.86 4.86L4.99 4.99Z" stroke="#200643" stroke-width="2" stroke-linecap="round" stroke-linejoin="round"/>
</svg>
