<svg width="58" height="58" viewBox="0 0 58 58" fill="none" xmlns="http://www.w3.org/2000/svg">
<path d="M33.833 38.6668C33.833 42.9443 31.9722 46.811 28.9997 49.4452C26.3542 51.8476 22.9065 53.1749 19.333 53.1668C11.3338 53.1668 4.83301 46.666 4.83301 38.6668C4.83301 31.9968 9.37634 26.3418 15.5147 24.6743C16.3466 26.7661 17.6527 28.6362 19.3301 30.1375C21.0075 31.6388 23.0105 32.7302 25.1813 33.326C26.3897 33.6643 27.6705 33.8335 28.9997 33.8335C30.3288 33.8335 31.6097 33.6643 32.818 33.326C33.4705 34.9693 33.833 36.7818 33.833 38.6668Z" fill="#546BF6"/>
<path d="M43.5 19.3335C43.5038 22.5153 42.4597 25.6098 40.529 28.1389C38.5984 30.6679 35.8886 32.4909 32.8183 33.326C31.61 33.6643 30.3292 33.8335 29 33.8335C27.6708 33.8335 26.39 33.6643 25.1817 33.326C22.1114 32.4909 19.4017 30.6679 17.471 28.1389C15.5403 25.6098 14.4962 22.5153 14.5 19.3335C14.5 11.3343 21.0008 4.8335 29 4.8335C36.9992 4.8335 43.5 11.3343 43.5 19.3335Z" fill="#EC66B7"/>
<path d="M53.1667 38.6668C53.1667 46.666 46.6658 53.1668 38.6667 53.1668C35.0931 53.1749 31.6455 51.8476 29 49.4452C31.9725 46.811 33.8333 42.9443 33.8333 38.6668C33.8333 36.7818 33.4708 34.9693 32.8183 33.326C37.2408 32.1177 40.8175 28.8793 42.485 24.6743C48.6233 26.3418 53.1667 31.9968 53.1667 38.6668Z" fill="#FCFFFE"/>
</svg>
