<svg width="59" height="59" viewBox="0 0 59 59" fill="none" xmlns="http://www.w3.org/2000/svg">
<path d="M34.5791 39.1663C34.5791 43.4438 32.7183 47.3105 29.7458 49.9447C27.1003 52.3471 23.6526 53.6744 20.0791 53.6663C12.0799 53.6663 5.5791 47.1655 5.5791 39.1663C5.5791 32.4963 10.1224 26.8413 16.2608 25.1738C17.0927 27.2656 18.3988 29.1357 20.0762 30.637C21.7536 32.1383 23.7566 33.2297 25.9274 33.8255C27.1358 34.1638 28.4166 34.333 29.7458 34.333C31.0749 34.333 32.3558 34.1638 33.5641 33.8255C34.2166 35.4688 34.5791 37.2813 34.5791 39.1663Z" fill="#546BF6"/>
<path d="M44.2461 19.834C44.2499 23.0158 43.2058 26.1103 41.2751 28.6393C39.3444 31.1684 36.6347 32.9914 33.5644 33.8265C32.3561 34.1648 31.0753 34.334 29.7461 34.334C28.4169 34.334 27.1361 34.1648 25.9278 33.8265C22.8575 32.9914 20.1478 31.1684 18.2171 28.6393C16.2864 26.1103 15.2423 23.0158 15.2461 19.834C15.2461 11.8348 21.7469 5.33398 29.7461 5.33398C37.7453 5.33398 44.2461 11.8348 44.2461 19.834Z" fill="#EC66B7"/>
<path d="M53.9128 39.1663C53.9128 47.1655 47.4119 53.6663 39.4128 53.6663C35.8392 53.6744 32.3916 52.3471 29.7461 49.9447C32.7186 47.3105 34.5794 43.4438 34.5794 39.1663C34.5794 37.2813 34.2169 35.4688 33.5644 33.8255C37.9869 32.6172 41.5636 29.3788 43.2311 25.1738C49.3694 26.8413 53.9128 32.4963 53.9128 39.1663Z" fill="#FCFFFE"/>
</svg>
