<svg width="63" height="62" viewBox="0 0 63 62" fill="none" xmlns="http://www.w3.org/2000/svg">
<circle cx="31.75" cy="31" r="31" fill="#F7F9FB"/>
<path d="M50.3725 11.625L34.2256 23.7344L37.2282 16.5979L50.3725 11.625Z" fill="#E17726" stroke="#E17726" stroke-width="0.25" stroke-linecap="round" stroke-linejoin="round"/>
<path d="M13.127 11.625L29.1301 23.8474L26.2713 16.5979L13.127 11.625Z" fill="#E27625" stroke="#E27625" stroke-width="0.25" stroke-linecap="round" stroke-linejoin="round"/>
<path d="M44.5579 39.7026L40.2617 46.3547L49.4611 48.9219L52.0964 39.848L44.5579 39.7026Z" fill="#E27625" stroke="#E27625" stroke-width="0.25" stroke-linecap="round" stroke-linejoin="round"/>
<path d="M11.418 39.848L14.0372 48.9219L23.2207 46.3547L18.9404 39.7026L11.418 39.848Z" fill="#E27625" stroke="#E27625" stroke-width="0.25" stroke-linecap="round" stroke-linejoin="round"/>
<path d="M22.7262 28.4649L20.1709 32.3722L29.2744 32.792L28.971 22.8623L22.7262 28.4649Z" fill="#E27625" stroke="#E27625" stroke-width="0.25" stroke-linecap="round" stroke-linejoin="round"/>
<path d="M40.7727 28.4651L34.4323 22.7495L34.2246 32.7922L43.3281 32.3724L40.7727 28.4651Z" fill="#E27625" stroke="#E27625" stroke-width="0.25" stroke-linecap="round" stroke-linejoin="round"/>
<path d="M23.2207 46.3547L28.7307 43.6584L23.9873 39.9126L23.2207 46.3547Z" fill="#E27625" stroke="#E27625" stroke-width="0.25" stroke-linecap="round" stroke-linejoin="round"/>
<path opacity="0.8" d="M34.7686 43.6584L40.2626 46.3547L39.5119 39.9126L34.7686 43.6584Z" fill="#E27625" stroke="#E27625" stroke-width="0.25" stroke-linecap="round" stroke-linejoin="round"/>
<path d="M40.2626 46.355L34.7686 43.6587L35.2157 47.2753L35.1677 48.8092L40.2626 46.355Z" fill="#D5BFB2" stroke="#D5BFB2" stroke-width="0.25" stroke-linecap="round" stroke-linejoin="round"/>
<path d="M23.2207 46.355L28.3315 48.8092L28.2995 47.2753L28.7307 43.6587L23.2207 46.355Z" fill="#D5BFB2" stroke="#D5BFB2" stroke-width="0.25" stroke-linecap="round" stroke-linejoin="round"/>
<path d="M28.4272 37.5228L23.8594 36.1666L27.0855 34.665L28.4272 37.5228Z" fill="#233447" stroke="#233447" stroke-width="0.25" stroke-linecap="round" stroke-linejoin="round"/>
<path d="M35.0713 37.5228L36.4129 34.665L39.6551 36.1666L35.0713 37.5228Z" fill="#233447" stroke="#233447" stroke-width="0.25" stroke-linecap="round" stroke-linejoin="round"/>
<path d="M23.2207 46.3547L24.0193 39.7026L18.9404 39.848L23.2207 46.3547Z" fill="#CC6228" stroke="#CC6228" stroke-width="0.25" stroke-linecap="round" stroke-linejoin="round"/>
<path d="M39.4795 39.7026L40.2621 46.3547L44.5583 39.848L39.4795 39.7026Z" fill="#CC6228" stroke="#CC6228" stroke-width="0.25" stroke-linecap="round" stroke-linejoin="round"/>
<path d="M43.3281 32.3721L34.2246 32.7919L35.071 37.5227L36.4127 34.6648L39.6548 36.1664L43.3281 32.3721Z" fill="#CC6228" stroke="#CC6228" stroke-width="0.25" stroke-linecap="round" stroke-linejoin="round"/>
<path d="M23.8602 36.1664L27.0864 34.6648L28.428 37.5227L29.2744 32.7919L20.1709 32.3721L23.8602 36.1664Z" fill="#CC6228" stroke="#CC6228" stroke-width="0.25" stroke-linecap="round" stroke-linejoin="round"/>
<path d="M20.1709 32.3721L23.988 39.9122L23.8602 36.1664L20.1709 32.3721Z" fill="#E27525" stroke="#E27525" stroke-width="0.25" stroke-linecap="round" stroke-linejoin="round"/>
<path d="M39.6554 36.1664L39.5117 39.9122L43.3288 32.3721L39.6554 36.1664Z" fill="#E27525" stroke="#E27525" stroke-width="0.25" stroke-linecap="round" stroke-linejoin="round"/>
<path d="M29.2743 32.792L28.4277 37.5228L29.4978 43.1092L29.7374 35.7467L29.2743 32.792Z" fill="#E27525" stroke="#E27525" stroke-width="0.25" stroke-linecap="round" stroke-linejoin="round"/>
<path d="M34.2256 32.792L33.7783 35.7306L34.0019 43.1092L35.072 37.5228L34.2256 32.792Z" fill="#E27525" stroke="#E27525" stroke-width="0.25" stroke-linecap="round" stroke-linejoin="round"/>
<path d="M35.072 37.5228L34.002 43.1092L34.7686 43.6582L39.5121 39.9123L39.6558 36.1665L35.072 37.5228Z" fill="#F5841F" stroke="#F5841F" stroke-width="0.25" stroke-linecap="round" stroke-linejoin="round"/>
<path d="M23.8594 36.1665L23.9872 39.9123L28.7306 43.6582L29.4972 43.1092L28.4272 37.5228L23.8594 36.1665Z" fill="#F5841F" stroke="#F5841F" stroke-width="0.25" stroke-linecap="round" stroke-linejoin="round"/>
<path d="M35.1671 48.8087L35.215 47.2748L34.7998 46.9196H28.6989L28.2995 47.2748L28.3315 48.8087L23.2207 46.3545L25.0095 47.8399L28.6349 50.3748H34.8476L38.4891 47.8399L40.2618 46.3545L35.1671 48.8087Z" fill="#C0AC9D" stroke="#C0AC9D" stroke-width="0.25" stroke-linecap="round" stroke-linejoin="round"/>
<path d="M34.7681 43.6583L34.0015 43.1094H29.4976L28.7311 43.6583L28.2998 47.275L28.6991 46.9198H34.8001L35.2154 47.275L34.7681 43.6583Z" fill="#161616" stroke="#161616" stroke-width="0.25" stroke-linecap="round" stroke-linejoin="round"/>
<path d="M51.059 24.5255L52.4166 17.8411L50.3723 11.625L34.7686 23.3308L40.7736 28.4651L49.2543 30.9677L51.123 28.7558L50.3085 28.1583L51.6021 26.9636L50.6119 26.1886L51.9056 25.1875L51.059 24.5255Z" fill="#763E1A" stroke="#763E1A" stroke-width="0.25" stroke-linecap="round" stroke-linejoin="round"/>
<path d="M11.083 17.8411L12.4565 24.5255L11.5781 25.1875L12.8877 26.1886L11.8975 26.9636L13.1912 28.1583L12.3767 28.7558L14.2453 30.9677L22.726 28.4651L28.7311 23.3308L13.1273 11.625L11.083 17.8411Z" fill="#763E1A" stroke="#763E1A" stroke-width="0.25" stroke-linecap="round" stroke-linejoin="round"/>
<path d="M49.2541 30.9674L40.7734 28.4648L43.3288 32.3722L39.5117 39.9122L44.5586 39.8476H52.097L49.2541 30.9674Z" fill="#F5841F" stroke="#F5841F" stroke-width="0.25" stroke-linecap="round" stroke-linejoin="round"/>
<path d="M22.7255 28.4648L14.2449 30.9674L11.418 39.8476H18.9404L23.9872 39.9122L20.1702 32.3722L22.7255 28.4648Z" fill="#F5841F" stroke="#F5841F" stroke-width="0.25" stroke-linecap="round" stroke-linejoin="round"/>
<path d="M34.2251 32.7919L34.7681 23.3304L37.2277 16.5977H26.2715L28.731 23.3304L29.274 32.7919L29.4817 35.7627L29.4976 43.1091H34.0015L34.0175 35.7627L34.2251 32.7919Z" fill="#F5841F" stroke="#F5841F" stroke-width="0.25" stroke-linecap="round" stroke-linejoin="round"/>
</svg>
