<svg width="59" height="58" viewBox="0 0 59 58" fill="none" xmlns="http://www.w3.org/2000/svg">
<circle cx="29.25" cy="29" r="29" fill="url(#paint0_linear_28_1535)"/>
<path fill-rule="evenodd" clip-rule="evenodd" d="M50.0107 29.3532H44.8984C44.8984 18.9347 36.423 10.4893 25.9674 10.4893C15.6412 10.4893 7.24592 18.7279 7.04045 28.968C6.82788 39.553 16.7939 48.7446 27.4179 48.7446H28.7543C38.1206 48.7446 50.6743 41.4385 52.6357 32.5365C52.9979 30.8957 51.6972 29.3532 50.0107 29.3532ZM18.3702 29.8174C18.3702 31.2106 17.2266 32.3501 15.8284 32.3501C14.4302 32.3501 13.2867 31.21 13.2867 29.8174V25.72C13.2867 24.3268 14.4302 23.1873 15.8284 23.1873C17.2266 23.1873 18.3702 24.3268 18.3702 25.72V29.8174ZM24.6545 32.3501C26.0526 32.3501 27.1961 31.2106 27.1961 29.8174V25.72C27.1961 24.3268 26.0526 23.1873 24.6545 23.1873C23.2567 23.1873 22.1127 24.3268 22.1127 25.72V29.8174C22.1127 31.21 23.2562 32.3501 24.6545 32.3501Z" fill="url(#paint1_linear_28_1535)"/>
<defs>
<linearGradient id="paint0_linear_28_1535" x1="0.25" y1="0" x2="0.25" y2="58" gradientUnits="userSpaceOnUse">
<stop stop-color="#534BB1"/>
<stop offset="1" stop-color="#551BF9"/>
</linearGradient>
<linearGradient id="paint1_linear_28_1535" x1="7.03705" y1="10.4893" x2="7.03705" y2="48.7446" gradientUnits="userSpaceOnUse">
<stop stop-color="white"/>
<stop offset="1" stop-color="white" stop-opacity="0.82"/>
</linearGradient>
</defs>
</svg>
