<svg width="59" height="58" viewBox="0 0 59 58" fill="none" xmlns="http://www.w3.org/2000/svg">
<circle cx="29.25" cy="29" r="29" fill="#7950DD"/>
<path d="M39.0953 22.4195C38.3819 21.9903 37.4545 21.9903 36.6698 22.4195L31.1051 25.7098L27.3241 27.8556L21.7595 31.146C21.0462 31.5752 20.1187 31.5752 19.334 31.146L14.9108 28.571C14.1974 28.1418 13.698 27.355 13.698 26.4966V21.4181C13.698 20.5597 14.1261 19.7729 14.9108 19.3437L19.2626 16.8402C19.976 16.411 20.9034 16.411 21.6882 16.8402L26.04 19.3437C26.7534 19.7729 27.2528 20.5597 27.2528 21.4181V24.7084L31.0338 22.491V19.2006C31.0338 18.3423 30.6058 17.5555 29.821 17.1263L21.7595 12.4054C21.0462 11.9762 20.1187 11.9762 19.334 12.4054L11.1298 17.1263C10.345 17.5555 9.91699 18.3423 9.91699 19.2006V28.714C9.91699 29.5724 10.345 30.3592 11.1298 30.7883L19.334 35.5093C20.0474 35.9385 20.9748 35.9385 21.7595 35.5093L27.3241 32.2904L31.1051 30.0731L36.6698 26.8543C37.3831 26.4251 38.3106 26.4251 39.0953 26.8543L43.4471 29.3578C44.1606 29.787 44.66 30.5738 44.66 31.4321V36.5107C44.66 37.369 44.2319 38.1559 43.4471 38.585L39.0953 41.1602C38.3819 41.5893 37.4545 41.5893 36.6698 41.1602L32.318 38.6566C31.6045 38.2274 31.1051 37.4406 31.1051 36.5822V33.2919L27.3241 35.5093V38.7997C27.3241 39.658 27.7521 40.4448 28.537 40.874L36.7411 45.595C37.4545 46.0241 38.3819 46.0241 39.1666 45.595L47.3709 40.874C48.0843 40.4448 48.5837 39.658 48.5837 38.7997V29.2863C48.5837 28.4279 48.1556 27.6411 47.3709 27.212L39.0953 22.4195Z" fill="white"/>
</svg>
