<svg width="40" height="39" viewBox="0 0 40 39" fill="none" xmlns="http://www.w3.org/2000/svg">
<rect x="0.5" width="39" height="39" rx="7" fill="#EC66B7"/>
<path d="M21.0394 13.8799H13.2594C12.4354 13.8825 11.6459 14.211 11.0632 14.7937C10.4806 15.3764 10.1521 16.1659 10.1494 16.9899V28.3499C10.1494 29.7999 11.1894 30.4199 12.4594 29.7099L16.3894 27.5199C16.8094 27.2899 17.4894 27.2899 17.8994 27.5199L21.8294 29.7099C23.0994 30.4199 24.1394 29.7999 24.1394 28.3499V16.9899C24.1401 16.5821 24.0604 16.1782 23.905 15.8013C23.7495 15.4243 23.5214 15.0816 23.2335 14.7929C22.9457 14.5041 22.6037 14.2748 22.2273 14.1181C21.8508 13.9615 21.4472 13.8805 21.0394 13.8799Z" stroke="#FCFFFE" stroke-width="1.5" stroke-linecap="round" stroke-linejoin="round"/>
<path d="M24.1494 16.9899V28.3499C24.1494 29.7999 23.1094 30.4099 21.8394 29.7099L17.9094 27.5199C17.4894 27.2899 16.8094 27.2899 16.3894 27.5199L12.4594 29.7099C11.1894 30.4099 10.1494 29.7999 10.1494 28.3499V16.9899C10.1494 15.2799 11.5494 13.8799 13.2594 13.8799H21.0394C22.7494 13.8799 24.1494 15.2799 24.1494 16.9899Z" stroke="#FCFFFE" stroke-width="1.5" stroke-linecap="round" stroke-linejoin="round"/>
<path d="M30.1494 13.11V24.47C30.1494 25.92 29.1094 26.53 27.8394 25.83L24.1494 23.77V16.99C24.1494 15.28 22.7494 13.88 21.0394 13.88H16.1494V13.11C16.1494 11.4 17.5494 10 19.2594 10H27.0394C28.7494 10 30.1494 11.4 30.1494 13.11Z" stroke="#FCFFFE" stroke-width="1.5" stroke-linecap="round" stroke-linejoin="round"/>
</svg>
