<svg width="39" height="39" viewBox="0 0 39 39" fill="none" xmlns="http://www.w3.org/2000/svg">
<rect width="39" height="39" rx="7" fill="#200643"/>
<path d="M16.5 29.5H22.5C27.5 29.5 29.5 27.5 29.5 22.5V16.5C29.5 11.5 27.5 9.5 22.5 9.5H16.5C11.5 9.5 9.5 11.5 9.5 16.5V22.5C9.5 27.5 11.5 29.5 16.5 29.5Z" stroke="#FCFFFE" stroke-width="1.5" stroke-linecap="round" stroke-linejoin="round"/>
<path d="M10.1699 26.45L15.0999 23.14C15.8899 22.61 17.0299 22.67 17.7399 23.28L18.0699 23.57C18.8499 24.24 20.1099 24.24 20.8899 23.57L25.0499 20C25.8299 19.33 27.0899 19.33 27.8699 20L29.4999 21.4M16.4999 17.5C17.0304 17.5 17.5391 17.2893 17.9141 16.9142C18.2892 16.5391 18.4999 16.0304 18.4999 15.5C18.4999 14.9696 18.2892 14.4609 17.9141 14.0858C17.5391 13.7107 17.0304 13.5 16.4999 13.5C15.9695 13.5 15.4608 13.7107 15.0857 14.0858C14.7106 14.4609 14.4999 14.9696 14.4999 15.5C14.4999 16.0304 14.7106 16.5391 15.0857 16.9142C15.4608 17.2893 15.9695 17.5 16.4999 17.5Z" stroke="#FCFFFE" stroke-width="1.5" stroke-linecap="round" stroke-linejoin="round"/>
</svg>
