<svg width="40" height="39" viewBox="0 0 40 39" fill="none" xmlns="http://www.w3.org/2000/svg">
<rect x="0.5" width="39" height="39" rx="7" fill="#3E7172"/>
<path d="M30 16.02V11.48C30 10.07 29.36 9.5 27.77 9.5H23.73C22.14 9.5 21.5 10.07 21.5 11.48V16.01C21.5 17.43 22.14 17.99 23.73 17.99H27.77C29.36 18 30 17.43 30 16.02ZM30 27.27V23.23C30 21.64 29.36 21 27.77 21H23.73C22.14 21 21.5 21.64 21.5 23.23V27.27C21.5 28.86 22.14 29.5 23.73 29.5H27.77C29.36 29.5 30 28.86 30 27.27ZM18.5 16.02V11.48C18.5 10.07 17.86 9.5 16.27 9.5H12.23C10.64 9.5 10 10.07 10 11.48V16.01C10 17.43 10.64 17.99 12.23 17.99H16.27C17.86 18 18.5 17.43 18.5 16.02ZM18.5 27.27V23.23C18.5 21.64 17.86 21 16.27 21H12.23C10.64 21 10 21.64 10 23.23V27.27C10 28.86 10.64 29.5 12.23 29.5H16.27C17.86 29.5 18.5 28.86 18.5 27.27Z" stroke="white" stroke-width="1.5" stroke-linecap="round" stroke-linejoin="round"/>
</svg>
