<svg width="39" height="39" viewBox="0 0 39 39" fill="none" xmlns="http://www.w3.org/2000/svg">
<rect width="39" height="39" rx="7" fill="#546BF6"/>
<path d="M20.66 8.72831L20.63 8.80414L17.73 16.095H14.88C14.2 16.095 13.55 16.2466 12.96 16.5175L14.71 11.9891L14.75 11.8808L14.82 11.7075C14.84 11.6425 14.86 11.5775 14.89 11.5233C16.2 8.24081 17.68 7.49331 20.66 8.72831V8.72831Z" stroke="white" stroke-width="1.5" stroke-linecap="round" stroke-linejoin="round"/>
<path d="M26.0505 16.3109C25.6005 16.1592 25.1205 16.0942 24.6405 16.0942H17.7305L20.6305 8.80337L20.6605 8.72754C20.8105 8.78171 20.9505 8.85754 21.1005 8.92254L23.3105 9.93004C24.5405 10.4825 25.4005 11.0567 25.9205 11.75C26.0205 11.88 26.1005 11.9992 26.1705 12.14C26.2605 12.2917 26.3305 12.4434 26.3705 12.6059C26.4105 12.7034 26.4405 12.8009 26.4605 12.8875C26.7305 13.7975 26.5705 14.9134 26.0505 16.3109V16.3109Z" stroke="white" stroke-width="1.5" stroke-linecap="round" stroke-linejoin="round"/>
<path d="M29.5217 21.3814V23.4939C29.5217 23.7106 29.5117 23.9272 29.5017 24.1439C29.3117 27.9247 27.3617 29.8314 23.6617 29.8314H15.8617C15.6217 29.8314 15.3817 29.8097 15.1517 29.7772C11.9717 29.5497 10.2717 27.7081 10.0617 24.2631C10.0317 24.0139 10.0117 23.7539 10.0117 23.4939V21.3814C10.0117 19.2039 11.2317 17.3297 12.9717 16.5172C13.5717 16.2464 14.2117 16.0947 14.8917 16.0947H24.6517C25.1417 16.0947 25.6217 16.1706 26.0617 16.3114C28.0517 16.9722 29.5217 18.9872 29.5217 21.3814V21.3814Z" stroke="white" stroke-width="1.5" stroke-linecap="round" stroke-linejoin="round"/>
<path d="M14.71 11.9883L12.96 16.5166C12.0821 16.9257 11.334 17.6044 10.808 18.4688C10.282 19.3332 10.0011 20.3455 10 21.3808V18.2066C10 15.1299 12.02 12.5624 14.71 11.9883V11.9883ZM29.519 18.2066V21.3808C29.519 18.9974 28.059 16.9716 26.059 16.3216C26.579 14.9133 26.729 13.8083 26.479 12.8874C26.459 12.7899 26.429 12.6924 26.389 12.6058C28.249 13.6458 29.519 15.7799 29.519 18.2066Z" stroke="white" stroke-width="1.5" stroke-linecap="round" stroke-linejoin="round"/>
</svg>
