<svg width="25" height="24" viewBox="0 0 25 24" fill="none" xmlns="http://www.w3.org/2000/svg">
<path d="M18.663 13.55C18.243 13.96 18.003 14.55 18.063 15.18C18.153 16.26 19.143 17.05 20.223 17.05H22.123V18.24C22.123 20.31 20.433 22 18.363 22H6.88305C4.81305 22 3.12305 20.31 3.12305 18.24V11.51C3.12305 9.44 4.81305 7.75 6.88305 7.75H18.363C20.433 7.75 22.123 9.44 22.123 11.51V12.95H20.103C19.543 12.95 19.033 13.17 18.663 13.55Z" stroke="white" stroke-width="1.5" stroke-linecap="round" stroke-linejoin="round"/>
<path d="M3.12305 12.4099V7.8399C3.12305 6.6499 3.85305 5.5899 4.96305 5.1699L12.903 2.1699C13.1907 2.06149 13.5004 2.02451 13.8056 2.06213C14.1107 2.09975 14.4021 2.21086 14.6549 2.38591C14.9076 2.56095 15.1141 2.79472 15.2566 3.06713C15.3991 3.33954 15.4734 3.64247 15.473 3.9499V7.7499M7.62305 11.9999H14.623M23.182 13.9699V16.0299C23.182 16.5799 22.742 17.0299 22.182 17.0499H20.222C19.142 17.0499 18.152 16.2599 18.062 15.1799C18.002 14.5499 18.242 13.9599 18.662 13.5499C19.032 13.1699 19.542 12.9499 20.102 12.9499H22.182C22.742 12.9699 23.182 13.4199 23.182 13.9699V13.9699Z" stroke="white" stroke-width="1.5" stroke-linecap="round" stroke-linejoin="round"/>
</svg>
